<?xml version="1.0" encoding="utf-8"?>
<svg xmlns="http://www.w3.org/2000/svg" viewBox="0 0 500 500">
  <path d="M 204.944 487.835 C 191.272 472.981 180.29 451.564 174.747 439.946 C 147.743 452.229 123.414 439.222 122.305 438.616 L 122.512 438.719 C 95.537 424.944 86.728 402.788 83.905 386.647 C 77.446 349.651 91.576 331.087 91.576 331.087 C 91.576 331.087 104.539 392.515 149.442 363.146 L 158.917 370.122 C 157.838 370.669 132.533 400.186 97.474 373.123 C 98.124 388.258 104.435 412.365 129.444 425.151 L 129.548 425.195 L 129.651 425.254 C 130.523 425.727 152.118 437.005 174.23 422.963 L 181.797 418.159 L 185.315 426.407 C 185.478 426.777 198.677 457.417 214.492 475.952 C 216.694 478.494 219.458 480.031 219.458 480.031 C 220.478 479.529 223.848 476.041 223.848 476.041 C 239.693 457.52 252.951 426.762 253.099 426.392 L 256.617 418.145 L 264.185 422.948 C 286.311 436.99 307.891 425.712 308.778 425.239 L 308.867 425.18 L 308.97 425.136 C 333.994 412.351 340.29 388.243 340.955 373.108 C 305.881 400.186 280.591 370.654 279.512 370.108 L 288.987 363.131 C 333.89 392.5 346.853 331.072 346.853 331.072 C 346.853 331.072 360.983 349.636 354.524 386.632 C 351.716 402.773 342.892 424.929 315.932 438.705 L 316.139 438.601 C 315.03 439.207 290.686 452.214 263.697 439.931 C 258.258 451.342 246.995 473.099 233.648 487.954 C 233.648 487.954 226.76 495.521 219.488 500 C 219.444 500.015 212.482 495.965 204.944 487.835 Z" style="stroke-width: 1; fill: rgb(255, 255, 255);"/>
  <path d="M 255.701 230.918 L 280.089 207.535 C 301.432 187.729 334.452 187.729 334.452 187.729 L 430.482 187.729 C 428.442 194.839 421.333 198.903 421.333 198.903 C 381.706 197.366 378.661 202.968 378.661 202.968 L 418.79 202.968 C 415.243 208.555 408.621 213.64 408.621 213.64 C 371.034 213.64 373.059 217.202 373.059 217.202 L 406.596 217.202 C 401.009 223.809 394.905 228.376 394.905 228.376 C 361.367 227.356 361.885 231.938 361.885 231.938 L 390.84 231.938 C 389.835 235.485 377.626 243.112 377.626 243.112 C 343.084 242.107 343.586 247.694 343.586 247.694 L 372.039 247.694 C 365.432 254.804 354.76 257.863 354.76 257.863 C 319.701 256.843 324.283 261.425 324.283 261.425 L 351.213 261.425 C 345.109 267.53 333.949 272.6 333.949 272.6 C 308.541 272.6 304.994 276.664 304.994 276.664 L 326.337 276.664 C 317.705 281.749 307.019 287.336 307.019 287.336 C 286.193 286.316 285.173 290.898 285.173 290.898 L 300.929 290.898 L 277.044 304.112 C 271.457 306.654 275.521 310.719 275.521 310.719 L 303.472 339.172 C 299.909 348.823 277.561 363.56 277.561 363.56 L 261.302 326.978 C 261.302 326.978 275.536 300.565 271.974 254.316 C 271.974 254.316 237.639 243.585 220.611 243.142 C 201.308 242.639 169.248 254.316 169.248 254.316 C 165.686 300.55 179.92 326.978 179.92 326.978 L 163.661 363.56 C 163.661 363.56 141.298 348.823 137.751 339.172 L 165.701 310.719 C 165.701 310.719 169.766 306.654 164.179 304.112 L 140.278 290.868 L 156.035 290.868 C 156.035 290.868 155.015 286.286 134.189 287.306 C 134.189 287.306 123.517 281.719 114.87 276.635 L 136.214 276.635 C 136.214 276.635 132.652 272.57 107.258 272.57 C 107.258 272.57 96.084 267.485 89.995 261.396 L 116.91 261.396 C 116.91 261.396 121.492 256.814 86.432 257.834 C 86.432 257.834 75.761 254.789 69.154 247.665 L 97.607 247.665 C 97.607 247.665 98.109 242.078 63.567 243.083 C 63.567 243.083 51.373 235.456 50.353 231.908 L 79.308 231.908 C 79.308 231.908 79.826 227.326 46.288 228.346 C 46.288 228.346 40.199 223.764 34.597 217.172 L 68.134 217.172 C 68.134 217.172 70.159 213.61 32.572 213.61 C 32.572 213.61 25.965 208.525 22.403 202.938 L 62.532 202.938 C 62.532 202.938 59.487 197.351 19.86 198.874 C 19.86 198.874 12.751 194.809 10.711 187.7 L 106.741 187.7 C 106.741 187.7 139.761 187.7 161.104 207.506 L 185.492 230.889 C 185.492 230.889 190.74 236.638 196.667 227.504 L 203.673 215.118 C 203.673 215.118 206.821 210.565 201.071 210.225 C 201.071 210.225 194.302 208.865 193.282 203.116 C 193.282 203.116 200.051 205.998 205.978 204.816 C 205.978 204.816 215.97 202.436 213.93 212.102 L 207.841 229.706 C 207.841 229.706 205.461 233.431 210.383 233.091 L 234.431 233.091 C 234.431 233.091 239.516 234.273 236.471 229.529 C 236.471 229.529 232.569 223.764 232.746 202.761 C 232.746 202.761 234.786 191.587 225.637 191.247 C 225.637 191.247 219.532 190.73 209.038 192.592 C 209.038 192.592 208.535 194.794 216.147 195.474 C 216.147 195.474 214.448 199.539 208.018 199.716 C 208.018 199.716 199.889 199.554 194.302 199.879 C 194.302 199.879 189.395 199.199 190.754 206.648 C 190.754 206.648 181.443 198.859 188.892 192.089 C 188.892 192.089 190.237 189.207 202.771 191.247 C 202.771 191.247 205.476 191.409 206.496 189.207 C 206.496 189.207 209.215 181.24 220.715 181.24 C 220.715 181.24 228.002 180.56 236.471 182.423 C 236.471 182.423 239.693 183.945 243.078 182.083 C 243.078 182.083 243.58 184.625 239.353 189.192 C 239.353 189.192 237.831 191.912 238.673 193.774 C 238.673 193.774 241.393 204.786 241.393 211.718 C 241.393 211.718 242.413 222.552 246.3 228.819 C 246.3 228.878 249.773 235.648 255.701 230.918 Z" style="stroke-width: 1; fill: rgb(255, 255, 255);"/>
  <path d="M 182.285 332.698 L 165.686 370.477 L 170.608 374.527 C 170.608 374.527 172.633 376.567 170.091 378.932 C 170.091 378.932 161.622 387.903 153.832 387.401 L 145.526 387.401 C 145.526 387.401 138.076 387.401 139.938 395.87 C 139.938 395.87 140.781 399.758 145.348 403.497 C 145.348 403.497 141.446 394.525 147.89 394.525 L 182.093 394.525 C 182.093 394.525 187.517 394.008 184.813 401.635 C 184.813 401.635 190.74 399.61 191.08 394.348 C 191.08 394.348 192.779 388.081 186.172 387.741 L 177.2 387.741 C 177.2 387.741 172.116 388.258 175.515 384.179 L 179.24 378.932 L 188.892 381.814 L 201.766 355.726 C 201.751 355.726 188.892 345.069 182.285 332.698 Z M 258.361 332.698 L 274.96 370.477 L 270.038 374.527 C 270.038 374.527 268.013 376.567 270.555 378.932 C 270.555 378.932 279.024 387.903 286.814 387.401 L 295.121 387.401 C 295.121 387.401 302.57 387.401 300.708 395.87 C 300.708 395.87 299.85 399.758 295.283 403.497 C 295.283 403.497 299.185 394.525 292.741 394.525 L 258.524 394.525 C 258.524 394.525 253.114 394.008 255.819 401.635 C 255.819 401.635 249.892 399.61 249.552 394.348 C 249.552 394.348 247.852 388.081 254.474 387.741 L 263.446 387.741 C 263.446 387.741 268.53 388.258 265.145 384.179 L 261.421 378.932 L 251.769 381.814 L 238.895 355.726 C 238.895 355.726 251.769 345.069 258.361 332.698 Z M 205.816 358.771 C 205.816 358.771 212.083 364.698 218.852 367.24 C 218.852 367.24 227.809 364.225 233.929 358.771 L 242.235 377.572 C 242.235 377.572 219.37 385.879 198.706 377.572 L 205.816 358.771 Z" style="stroke-width: 1; fill: rgb(255, 255, 255);"/>
  <path d="M 175.412 289.006 L 182.522 289.006 L 182.522 318.819 C 182.522 318.804 176.432 311.354 175.412 289.006 Z M 188.877 289.006 L 195.735 289.006 L 195.735 341.344 C 195.735 341.344 190.414 335.58 188.877 332.195 L 188.877 289.006 Z M 202.594 289.006 L 209.452 289.006 L 209.452 355.223 C 209.452 355.223 204.116 350.301 202.594 346.917 L 202.594 289.006 Z M 264.495 289.006 L 257.386 289.006 L 257.386 318.819 C 257.386 318.804 263.49 311.354 264.495 289.006 Z M 251.03 289.006 L 244.172 289.006 L 244.172 341.344 C 244.172 341.344 249.507 335.58 251.03 332.195 L 251.03 289.006 Z M 237.313 289.006 L 230.455 289.006 L 230.455 355.223 C 230.455 355.223 235.776 350.301 237.313 346.917 L 237.313 289.006 Z M 216.059 357.248 L 216.059 288.991 L 222.917 288.991 L 223.168 356.997 C 223.168 356.997 222.163 359.273 219.946 360.811 C 219.946 360.811 218.084 360.973 216.059 357.248 Z" style="stroke-width: 1; fill: rgb(255, 255, 255);"/>
  <path d="M 265.515 285.193 L 265.515 258.011 C 265.515 258.011 231.638 248.182 219.784 247.502 C 219.784 247.502 192.351 252.084 175.412 257.671 L 175.412 285.193 L 265.515 285.193 Z" style="stroke-width: 1; fill: rgb(255, 255, 255);"/>
  <path d="M 221.572 252.365 L 222.754 255.809 L 226.39 255.883 L 223.493 258.085 L 224.543 261.558 L 221.572 259.489 L 218.586 261.558 L 219.636 258.085 L 216.739 255.883 L 220.375 255.809 L 221.572 252.365 Z M 209.881 254.405 L 211.078 257.834 L 214.714 257.908 L 211.817 260.11 L 212.866 263.598 L 209.881 261.514 L 206.895 263.598 L 207.944 260.11 L 205.047 257.908 L 208.683 257.834 L 209.881 254.405 Z M 197.849 256.947 L 199.046 260.376 L 202.682 260.45 L 199.785 262.652 L 200.835 266.14 L 197.849 264.056 L 194.863 266.14 L 195.913 262.652 L 193.016 260.45 L 196.652 260.376 L 197.849 256.947 Z M 185.33 259.829 L 186.512 263.258 L 190.148 263.332 L 187.251 265.534 L 188.301 269.008 L 185.33 266.939 L 182.329 269.008 L 183.394 265.534 L 180.482 263.332 L 184.133 263.258 L 185.33 259.829 Z M 233.249 254.405 L 232.051 257.834 L 228.415 257.908 L 231.312 260.11 L 230.263 263.598 L 233.249 261.514 L 236.234 263.598 L 235.185 260.11 L 238.082 257.908 L 234.446 257.834 L 233.249 254.405 Z M 245.28 256.947 L 244.083 260.376 L 240.447 260.45 L 243.344 262.652 L 242.294 266.14 L 245.28 264.056 L 248.251 266.14 L 247.202 262.652 L 250.099 260.45 L 246.463 260.376 L 245.28 256.947 Z M 257.799 259.829 L 256.617 263.258 L 252.981 263.332 L 255.878 265.534 L 254.828 269.008 L 257.799 266.939 L 260.8 269.008 L 259.736 265.534 L 262.647 263.332 L 258.997 263.258 L 257.799 259.829 Z M 257.799 272.526 L 256.617 275.955 L 252.981 276.043 L 255.878 278.231 L 254.828 281.719 L 257.799 279.635 L 260.8 281.719 L 259.736 278.231 L 262.647 276.043 L 258.997 275.955 L 257.799 272.526 Z M 243.758 272.526 L 242.561 275.955 L 238.924 276.043 L 241.821 278.231 L 240.772 281.719 L 243.758 279.635 L 246.743 281.719 L 245.694 278.231 L 248.576 276.043 L 244.94 275.955 L 243.758 272.526 Z M 229.701 272.526 L 228.489 275.955 L 224.853 276.043 L 227.765 278.231 L 226.701 281.719 L 229.701 279.635 L 232.687 281.719 L 231.623 278.231 L 234.52 276.043 L 230.899 275.955 L 229.701 272.526 Z M 214.625 272.526 L 213.428 275.955 L 209.792 276.043 L 212.689 278.231 L 211.639 281.719 L 214.625 279.635 L 217.611 281.719 L 216.547 278.231 L 219.458 276.043 L 215.822 275.955 L 214.625 272.526 Z M 199.549 272.526 L 198.352 275.955 L 194.716 276.043 L 197.613 278.231 L 196.563 281.719 L 199.549 279.635 L 202.535 281.719 L 201.47 278.231 L 204.382 276.043 L 200.746 275.955 L 199.549 272.526 Z M 185.492 272.526 L 184.295 275.955 L 180.659 276.043 L 183.556 278.231 L 182.507 281.719 L 185.492 279.635 L 188.478 281.719 L 187.429 278.231 L 190.311 276.043 L 186.675 275.955 L 185.492 272.526 Z" style="stroke-width: 1; fill: rgb(255, 255, 255);"/>
  <path d="M 46.953 238.205 L 52.925 255.38 L 71.105 255.764 L 56.62 266.746 L 61.882 284.173 L 46.953 273.767 L 32.025 284.158 L 37.287 266.746 L 22.787 255.764 L 40.982 255.38 L 46.953 238.205 Z M 219.946 45.273 C 219.946 45.273 223.006 102.681 225.031 122.502 C 225.031 122.502 227.07 154 227.573 173.318 L 210.812 173.318 C 210.812 173.318 213.871 136.233 214.876 122.502 C 214.876 122.502 217.921 79.313 219.946 45.273 Z" style="stroke-width: 1; fill: rgb(255, 255, 255);"/>
  <path d="M 19.993 209.309 C 4.695 268.668 38.602 298.791 56.428 310.069 C 60.566 282.355 86.019 267.855 87.423 267.131 L 100.001 276.103 C 59.044 297.461 72.406 334.161 72.406 334.161 C 72.406 334.161 39.873 320.858 23.29 301.437 C -16.87 254.39 6.691 200.16 8.553 196.124 L 19.993 209.309 Z M 399.768 255.38 L 393.796 238.205 L 387.825 255.38 L 369.63 255.764 L 384.13 266.746 L 378.868 284.173 L 393.796 273.767 L 408.725 284.158 L 403.463 266.746 L 417.963 255.764 L 399.768 255.38 Z" style="stroke-width: 1; fill: rgb(255, 255, 255);"/>
  <path d="M 432.196 196.139 L 420.756 209.324 C 436.054 268.683 402.147 298.806 384.322 310.083 C 380.168 282.37 354.731 267.87 353.342 267.146 L 340.748 276.117 C 381.706 297.475 368.344 334.176 368.344 334.176 C 368.344 334.176 400.876 320.873 417.46 301.451 C 457.619 254.39 434.059 200.16 432.196 196.139 Z M 374.847 155.108 L 375.099 155.153 C 373.133 154.798 331.097 147.378 297.722 164.79 C 294.928 149.625 288.159 122.502 273.009 98.705 C 272.846 98.439 257.297 71.819 250.852 61.443 L 250.793 61.34 L 250.734 61.251 C 250.572 60.955 224.868 21.003 219.606 0 C 214.359 21.003 190.163 60.97 190.001 61.251 L 189.956 61.325 L 189.897 61.428 C 183.453 71.538 167.903 98.41 167.741 98.69 C 152.605 122.487 145.836 149.61 143.028 164.775 C 109.653 147.363 67.602 154.783 65.651 155.138 L 65.902 155.093 C 41.071 158.803 22.654 171.042 16.372 183.206 L 37.346 183.221 C 44.485 177.368 54.432 172.224 68.149 170.17 L 68.282 170.155 L 68.4 170.14 C 68.858 170.051 115.373 161.922 144.269 183.487 L 155.089 191.557 L 156.404 178.122 C 156.434 177.737 160.602 138.303 180.659 106.775 C 181.383 105.593 197.051 80.126 203.214 68.848 C 204.293 67.001 213.221 50.831 219.355 30.995 C 225.489 50.831 236.456 67.001 237.52 68.848 C 243.684 80.126 259.351 105.593 260.076 106.775 C 280.133 138.303 284.286 177.737 284.331 178.122 L 285.661 191.557 L 296.466 183.487 C 325.362 161.922 371.876 170.051 372.335 170.14 L 372.468 170.155 L 372.586 170.17 C 386.302 172.224 396.25 177.368 403.374 183.221 L 425.279 183.206 C 419.027 171.042 399.694 158.818 374.847 155.108 Z" style="stroke-width: 1; fill: rgb(255, 255, 255);"/>
</svg>